<?xml version="1.0" standalone="no"?>
<!DOCTYPE svg PUBLIC "-//W3C//DTD SVG 20010904//EN"
 "http://www.w3.org/TR/2001/REC-SVG-20010904/DTD/svg10.dtd">
<svg version="1.0" xmlns="http://www.w3.org/2000/svg"
 width="300.000000pt" height="300.000000pt" viewBox="0 0 300.000000 300.000000"
 preserveAspectRatio="xMidYMid meet">
<metadata>
Created by potrace 1.10, written by Peter Selinger 2001-2011
</metadata>
<g transform="translate(0.000000,300.000000) scale(0.100000,-0.100000)"
fill="#000000" stroke="none">
<path d="M2110 1856 c-5 -14 -10 -37 -12 -53 -3 -27 -1 -28 44 -31 52 -3 61 5
73 71 l7 37 -51 0 c-45 0 -53 -3 -61 -24z"/>
<path d="M665 1823 c-39 -6 -55 -20 -55 -48 0 -40 -11 -55 -40 -55 -24 0 -29
-5 -35 -32 -4 -18 -9 -41 -11 -50 -4 -14 1 -18 26 -18 25 0 30 -3 26 -17 -10
-38 -66 -305 -66 -319 0 -12 11 -14 52 -12 l52 3 35 173 36 172 47 0 c44 0 47
1 53 33 4 17 9 40 11 50 5 14 -2 17 -42 17 -51 0 -50 -3 -28 84 7 28 5 28 -61
19z m40 -131 c32 -25 31 -28 -3 -35 -43 -9 -59 -43 -91 -192 -16 -75 -32 -139
-35 -142 -16 -17 -14 16 11 140 27 135 27 135 8 171 l-19 35 27 21 c15 12 35
36 44 53 l16 32 9 -32 c4 -17 19 -41 33 -51z"/>
<path d="M2365 1823 c-39 -6 -47 -14 -54 -60 -5 -32 -10 -38 -34 -41 -28 -3
-37 -16 -51 -74 -6 -26 -4 -28 24 -28 16 0 30 -2 30 -4 0 -3 -16 -77 -35 -165
-19 -88 -35 -165 -35 -171 0 -7 19 -10 52 -8 l53 3 37 165 c20 91 37 168 37
173 1 4 21 7 45 7 51 0 51 0 61 58 l7 42 -47 0 c-39 0 -46 3 -41 16 3 9 9 33
12 55 7 42 9 42 -61 32z m22 -64 c-7 -27 20 -69 44 -69 11 0 19 -3 19 -7 -1
-16 -29 -45 -38 -39 -5 3 -21 -4 -36 -15 -20 -16 -26 -29 -26 -59 0 -21 -4
-42 -10 -45 -5 -3 -10 -23 -10 -43 -1 -20 -7 -48 -14 -61 -8 -14 -12 -30 -9
-37 2 -7 0 -15 -6 -18 -6 -4 -8 -12 -5 -19 5 -15 -33 -41 -41 -27 -3 5 -1 27
4 47 6 21 11 52 11 70 0 17 4 33 9 35 4 2 11 38 15 81 6 65 4 78 -9 83 -24 10
-17 38 15 62 17 13 30 29 30 37 0 14 37 45 53 45 5 0 7 -10 4 -21z"/>
<path d="M1000 1721 c-225 -47 -313 -357 -126 -442 57 -26 113 -24 172 6 27
14 50 25 51 25 0 0 -1 -9 -4 -20 -5 -18 0 -20 40 -20 35 0 47 4 51 18 5 16 86
396 89 417 1 6 -17 11 -41 13 -38 3 -43 0 -52 -23 l-10 -27 -31 26 c-17 14
-38 26 -47 26 -9 0 -26 2 -37 4 -11 2 -36 1 -55 -3z m124 -62 c35 -19 40 -19
62 -4 20 13 25 13 30 2 2 -7 -11 -84 -31 -171 -19 -87 -35 -160 -35 -162 0
-10 -37 -2 -54 11 -19 15 -19 16 11 48 66 69 80 139 41 208 -25 45 -89 81
-134 76 -100 -12 -183 -120 -171 -224 6 -55 54 -110 105 -119 28 -5 31 -9 18
-16 -45 -25 -137 36 -151 103 -35 160 168 324 309 248z m-19 -71 c23 -28 26
-39 23 -80 -6 -57 -42 -108 -94 -133 -77 -36 -154 6 -154 86 0 50 19 87 65
128 30 26 44 31 84 31 43 0 53 -4 76 -32z"/>
<path d="M1510 1721 c-150 -46 -246 -228 -186 -354 41 -83 170 -115 249 -61
21 14 40 24 42 22 12 -12 -41 -72 -78 -88 -52 -24 -78 -24 -145 -1 l-53 18
-30 -44 -30 -44 48 -21 c72 -33 181 -31 249 4 58 31 101 76 126 133 15 33 98
397 98 427 0 5 -19 8 -42 6 -32 -2 -45 -8 -54 -26 -11 -22 -11 -22 -29 -2 -30
34 -108 48 -165 31z m140 -60 c39 -16 47 -17 66 -4 31 20 35 5 18 -68 -8 -35
-24 -109 -35 -164 -23 -111 -53 -172 -102 -206 l-32 -23 38 42 c40 46 46 75
20 104 -15 17 -15 20 9 46 89 94 88 198 -2 260 -61 41 -148 19 -208 -54 -78
-94 -53 -211 53 -255 l30 -13 -27 -4 c-38 -5 -96 25 -113 59 -30 56 -14 151
38 223 26 36 111 76 162 75 22 0 60 -8 85 -18z m-41 -45 c52 -27 64 -90 31
-155 -39 -78 -139 -106 -197 -57 -58 50 -22 169 61 207 50 22 69 23 105 5z
m-149 -436 l45 -7 -61 -2 c-41 -1 -66 4 -80 15 -18 15 -17 15 16 8 19 -3 55
-10 80 -14z"/>
<path d="M2076 1708 c-10 -34 -86 -408 -86 -422 0 -14 9 -17 52 -14 l51 3 47
218 c25 120 44 220 41 222 -10 11 -102 4 -105 -7z m72 -66 c-2 -9 -10 -16 -18
-14 -11 3 -11 0 0 -12 7 -9 8 -16 2 -16 -5 0 -10 -18 -10 -41 -1 -22 -6 -47
-12 -54 -6 -7 -10 -19 -9 -27 4 -31 -2 -69 -10 -64 -5 3 -11 -16 -15 -43 -7
-57 -12 -64 -38 -50 -17 9 -17 11 -2 26 13 13 13 18 2 25 -10 7 -10 11 -1 14
7 3 9 12 6 20 -3 8 -1 14 5 14 5 0 8 10 7 23 -2 13 3 41 11 62 7 22 17 63 20
90 3 28 13 60 21 73 12 20 15 21 29 7 9 -8 14 -23 12 -33z"/>
<path d="M1847 1523 c-21 -76 -22 -73 37 -73 57 0 66 9 66 68 0 20 -5 22 -49
22 -39 0 -51 -4 -54 -17z"/>
</g>
</svg>
